name: Font 8x16
spacing: character-cell
cell-size: 8x16
converter: monobit v0.40
source-format: raw [offset=2048 cell=8x16 count=256]
source-name: FONT.ROM
encoding: jisx0201
history:
    set -encoding=jisx0201
    label
    label -comment-from=desc

0x00:
u+0000:
    ........
    ........
    ........
    ........
    ........
    ........
    ........
    ........
    ........
    ........
    ........
    ........
    ........
    ........
    ........
    ........

0x01:
    ..@@@...
    .@...@..
    .@......
    ..@@@...
    .....@..
    .@...@..
    ..@@@...
    ........
    ...@...@
    ...@...@
    ...@...@
    ...@@@@@
    ...@...@
    ...@...@
    ...@...@
    ........

0x02:
    ..@@@...
    .@...@..
    .@......
    ..@@@...
    .....@..
    .@...@..
    ..@@@...
    ........
    ...@...@
    ...@...@
    ....@.@.
    .....@..
    ....@.@.
    ...@...@
    ...@...@
    ........

0x03:
    .@@@@@..
    .@......
    .@......
    .@@@@...
    .@......
    .@......
    .@@@@@..
    ........
    ...@...@
    ...@...@
    ....@.@.
    .....@..
    ....@.@.
    ...@...@
    ...@...@
    ........

0x04:
    .@@@@@..
    .@......
    .@......
    .@@@@...
    .@......
    .@......
    .@@@@@..
    ........
    ...@@@@@
    .....@..
    .....@..
    .....@..
    .....@..
    .....@..
    .....@..
    ........

0x05:
    .@@@@@..
    .@......
    .@......
    .@@@@...
    .@......
    .@......
    .@@@@@..
    ........
    ....@@@.
    ...@...@
    ...@...@
    ...@...@
    ...@.@.@
    ...@..@.
    ....@@.@
    ........

0x06:
    ...@....
    ..@.@...
    .@...@..
    .@@@@@..
    .@...@..
    .@...@..
    .@...@..
    ........
    ...@...@
    ...@..@.
    ...@.@..
    ...@@...
    ...@.@..
    ...@..@.
    ...@...@
    ........

0x07:
    .@@@@...
    .@...@..
    .@...@..
    .@@@@...
    .@...@..
    .@...@..
    .@@@@...
    ........
    ...@....
    ...@....
    ...@....
    ...@....
    ...@....
    ...@....
    ...@@@@@
    ........

0x08:
    .@@@@...
    .@...@..
    .@...@..
    .@@@@...
    .@...@..
    .@...@..
    .@@@@...
    ........
    ....@@@.
    ...@...@
    ...@....
    ....@@@.
    .......@
    ...@...@
    ....@@@.
    ........

0x09:
    .@...@..
    .@...@..
    .@...@..
    .@@@@@..
    .@...@..
    .@...@..
    .@...@..
    ........
    ...@@@@@
    .....@..
    .....@..
    .....@..
    .....@..
    .....@..
    .....@..
    ........

0x0a:
    .@......
    .@......
    .@......
    .@......
    .@......
    .@......
    .@@@@@..
    ........
    ...@@@@@
    ...@....
    ...@....
    ...@@@@.
    ...@....
    ...@....
    ...@....
    ........

0x0b:
    .@...@..
    .@...@..
    .@...@..
    .@@@@@..
    .@...@..
    .@...@..
    .@...@..
    ........
    ...@...@
    ...@@.@@
    ...@@.@@
    ...@.@.@
    ...@.@.@
    ...@...@
    ...@...@
    ........

0x0c:
    ..@@@...
    .@...@..
    .@......
    .@......
    .@......
    .@...@..
    ..@@@...
    ........
    ...@....
    ...@....
    ...@....
    ...@....
    ...@....
    ...@....
    ...@@@@@
    ........

0x0d:
    ..@@@...
    .@...@..
    .@......
    .@......
    .@......
    .@...@..
    ..@@@...
    ........
    ...@@@@.
    ...@...@
    ...@...@
    ...@@@@.
    ...@.@..
    ...@..@.
    ...@...@
    ........

0x0e:
    ..@@@...
    .@...@..
    .@......
    ..@@@...
    .....@..
    .@...@..
    ..@@@...
    ........
    ....@@@.
    ...@...@
    ...@...@
    ...@...@
    ...@...@
    ...@...@
    ....@@@.
    ........

0x0f:
    ..@@@...
    .@...@..
    .@......
    ..@@@...
    .....@..
    .@...@..
    ..@@@...
    ........
    ....@@@.
    .....@..
    .....@..
    .....@..
    .....@..
    .....@..
    ....@@@.
    ........

0x10:
    .@@@@...
    .@...@..
    .@...@..
    .@...@..
    .@...@..
    .@...@..
    .@@@@...
    ........
    ...@@@@@
    ...@....
    ...@....
    ...@@@@.
    ...@....
    ...@....
    ...@@@@@
    ........

0x11:
    .@@@@...
    .@...@..
    .@...@..
    .@...@..
    .@...@..
    .@...@..
    .@@@@...
    ........
    .....@..
    ....@@..
    .....@..
    .....@..
    .....@..
    .....@..
    ....@@@.
    ........

0x12:
    .@@@@...
    .@...@..
    .@...@..
    .@...@..
    .@...@..
    .@...@..
    .@@@@...
    ........
    ....@@@.
    ...@...@
    .......@
    ......@.
    .....@..
    ....@...
    ...@@@@@
    ........

0x13:
    .@@@@...
    .@...@..
    .@...@..
    .@...@..
    .@...@..
    .@...@..
    .@@@@...
    ........
    ....@@@.
    ...@...@
    .......@
    ....@@@.
    .......@
    ...@...@
    ....@@@.
    ........

0x14:
    .@@@@...
    .@...@..
    .@...@..
    .@...@..
    .@...@..
    .@...@..
    .@@@@...
    ........
    ......@.
    .....@..
    ....@.@.
    ...@..@.
    ...@@@@@
    ......@.
    ......@.
    ........

0x15:
    .@...@..
    .@...@..
    .@@..@..
    .@.@.@..
    .@..@@..
    .@...@..
    .@...@..
    ........
    ...@...@
    ...@..@.
    ...@.@..
    ...@@...
    ...@.@..
    ...@..@.
    ...@...@
    ........

0x16:
    ..@@@...
    .@...@..
    .@......
    ..@@@...
    .....@..
    .@...@..
    ..@@@...
    ........
    ...@...@
    ...@...@
    ...@@..@
    ...@.@.@
    ...@..@@
    ...@...@
    ...@...@
    ........

0x17:
    .@@@@@..
    .@......
    .@......
    .@@@@...
    .@......
    .@......
    .@@@@@..
    ........
    ...@@@@.
    ...@...@
    ...@...@
    ...@@@@.
    ...@...@
    ...@...@
    ...@@@@.
    ........

0x18:
    ..@@@...
    .@...@..
    .@......
    .@......
    .@......
    .@...@..
    ..@@@...
    ........
    ...@...@
    ...@...@
    ...@@..@
    ...@.@.@
    ...@..@@
    ...@...@
    ...@...@
    ........

0x19:
    .@@@@@..
    .@......
    .@......
    .@@@@...
    .@......
    .@......
    .@@@@@..
    ........
    ...@...@
    ...@@.@@
    ...@@.@@
    ...@.@.@
    ...@.@.@
    ...@...@
    ...@...@
    ........

0x1a:
    ..@@@...
    .@...@..
    .@......
    ..@@@...
    .....@..
    .@...@..
    ..@@@...
    ........
    ...@@@@.
    ...@...@
    ...@...@
    ...@@@@.
    ...@...@
    ...@...@
    ...@@@@.
    ........

0x1b:
    .@@@@@..
    .@......
    .@......
    .@@@@...
    .@......
    .@......
    .@@@@@..
    ........
    ....@@@.
    ...@...@
    ...@....
    ...@....
    ...@....
    ...@...@
    ....@@@.
    ........

0x1c:
    ........
    ........
    ....@...
    ....@...
    .....@..
    .....@..
    .@@@@@@.
    .....@..
    .....@..
    ....@...
    ....@...
    ........
    ........
    ........
    ........
    ........

0x1d:
    ........
    ........
    ...@....
    ...@....
    ..@.....
    ..@.....
    .@@@@@@.
    ..@.....
    ..@.....
    ...@....
    ...@....
    ........
    ........
    ........
    ........
    ........

0x1e:
    ........
    ........
    ....@...
    ....@...
    ...@@@..
    ...@@@..
    ..@.@.@.
    ..@.@.@.
    ....@...
    ....@...
    ....@...
    ....@...
    ....@...
    ....@...
    ........
    ........

0x1f:
    ........
    ........
    ....@...
    ....@...
    ....@...
    ....@...
    ....@...
    ....@...
    ..@.@.@.
    ..@.@.@.
    ...@@@..
    ...@@@..
    ....@...
    ....@...
    ........
    ........


# [ ] SPACE
0x20:
u+0020:
    ........
    ........
    ........
    ........
    ........
    ........
    ........
    ........
    ........
    ........
    ........
    ........
    ........
    ........
    ........
    ........


# [!] EXCLAMATION MARK
0x21:
u+0021:
    ........
    ........
    ........
    ...@....
    ...@....
    ...@....
    ...@....
    ...@....
    ...@....
    ...@....
    ........
    ........
    ...@....
    ...@....
    ........
    ........


# ["] QUOTATION MARK
0x22:
u+0022:
    ........
    ........
    ........
    ..@@.@@.
    ..@@.@@.
    ...@..@.
    ..@..@..
    ........
    ........
    ........
    ........
    ........
    ........
    ........
    ........
    ........


# [#] NUMBER SIGN
0x23:
u+0023:
    ........
    ........
    ........
    ..@...@.
    ..@...@.
    .@@@@@@@
    ..@...@.
    ..@...@.
    ..@...@.
    ..@...@.
    ..@...@.
    .@@@@@@@
    ..@...@.
    ..@...@.
    ........
    ........


# [$] DOLLAR SIGN
0x24:
u+0024:
    ........
    ........
    ....@...
    ....@...
    ..@@@@@.
    .@..@..@
    .@..@..@
    .@..@...
    ..@@@@@.
    ....@..@
    .@..@..@
    .@..@..@
    ..@@@@@.
    ....@...
    ....@...
    ........


# [%] PERCENT SIGN
0x25:
u+0025:
    ........
    ........
    ........
    ..@.....
    .@.@....
    .@.@...@
    ..@...@.
    .....@..
    ....@...
    ...@....
    ..@...@.
    .@...@.@
    .....@.@
    ......@.
    ........
    ........


# [&] AMPERSAND
0x26:
u+0026:
    ........
    ........
    ........
    ..@@@...
    .@...@..
    .@...@..
    .@...@..
    ..@.@...
    ...@....
    ..@.@...
    .@...@.@
    .@....@.
    .@...@@.
    ..@@@..@
    ........
    ........


# ['] APOSTROPHE
0x27:
u+0027:
    ........
    ........
    ........
    ...@@...
    ...@@...
    ....@...
    ...@....
    ........
    ........
    ........
    ........
    ........
    ........
    ........
    ........
    ........


# [(] LEFT PARENTHESIS
0x28:
u+0028:
    ........
    ........
    ........
    ......@.
    .....@..
    .....@..
    ....@...
    ....@...
    ....@...
    ....@...
    ....@...
    .....@..
    .....@..
    ......@.
    ........
    ........


# [)] RIGHT PARENTHESIS
0x29:
u+0029:
    ........
    ........
    ........
    ..@.....
    ...@....
    ...@....
    ....@...
    ....@...
    ....@...
    ....@...
    ....@...
    ...@....
    ...@....
    ..@.....
    ........
    ........


# [*] ASTERISK
0x2a:
u+002a:
    ........
    ........
    ........
    ........
    ........
    ........
    ....@...
    ..@.@.@.
    ...@@@..
    ..@.@.@.
    ....@...
    ........
    ........
    ........
    ........
    ........


# [+] PLUS SIGN
0x2b:
u+002b:
    ........
    ........
    ........
    ........
    ........
    ....@...
    ....@...
    ....@...
    .@@@@@@@
    ....@...
    ....@...
    ....@...
    ........
    ........
    ........
    ........


# [,] COMMA
0x2c:
u+002c:
    ........
    ........
    ........
    ........
    ........
    ........
    ........
    ........
    ........
    ........
    ........
    ...@@...
    ...@@...
    ....@...
    ...@....
    ........


# [-] HYPHEN-MINUS
0x2d:
u+002d:
    ........
    ........
    ........
    ........
    ........
    ........
    ........
    ........
    .@@@@@@@
    ........
    ........
    ........
    ........
    ........
    ........
    ........


# [.] FULL STOP
0x2e:
u+002e:
    ........
    ........
    ........
    ........
    ........
    ........
    ........
    ........
    ........
    ........
    ........
    ........
    ...@@...
    ...@@...
    ........
    ........


# [/] SOLIDUS
0x2f:
u+002f:
    ........
    ........
    ........
    ........
    ........
    .......@
    ......@.
    .....@..
    ....@...
    ...@....
    ..@.....
    .@......
    ........
    ........
    ........
    ........


# [0] DIGIT ZERO
0x30:
u+0030:
    ........
    ........
    ........
    ..@@@@@.
    .@....@@
    .@....@@
    .@...@.@
    .@...@.@
    .@..@..@
    .@.@...@
    .@.@...@
    .@@....@
    .@@....@
    ..@@@@@.
    ........
    ........


# [1] DIGIT ONE
0x31:
u+0031:
    ........
    ........
    ........
    ....@...
    ...@@...
    ..@.@...
    ....@...
    ....@...
    ....@...
    ....@...
    ....@...
    ....@...
    ....@...
    ...@@@..
    ........
    ........


# [2] DIGIT TWO
0x32:
u+0032:
    ........
    ........
    ........
    ...@@@..
    ..@...@.
    .@.....@
    .@.....@
    .......@
    .....@@.
    ...@@...
    ..@.....
    .@......
    .@......
    .@@@@@@@
    ........
    ........


# [3] DIGIT THREE
0x33:
u+0033:
    ........
    ........
    ........
    ...@@@..
    ..@...@.
    .@.....@
    .......@
    ......@.
    ...@@@..
    ......@.
    .......@
    .@.....@
    ..@...@.
    ...@@@..
    ........
    ........


# [4] DIGIT FOUR
0x34:
u+0034:
    ........
    ........
    ........
    ......@.
    .....@@.
    ....@.@.
    ....@.@.
    ...@..@.
    ...@..@.
    ..@...@.
    ..@...@.
    .@@@@@@@
    ......@.
    ......@.
    ........
    ........


# [5] DIGIT FIVE
0x35:
u+0035:
    ........
    ........
    ........
    .@@@@@@.
    .@......
    .@......
    .@......
    .@.@@@..
    .@@...@.
    .......@
    .......@
    .@.....@
    ..@...@.
    ...@@@..
    ........
    ........


# [6] DIGIT SIX
0x36:
u+0036:
    ........
    ........
    ........
    ...@@@..
    ..@...@.
    .@.....@
    .@......
    .@.@@@..
    .@@...@.
    .@.....@
    .@.....@
    .@.....@
    ..@...@.
    ...@@@..
    ........
    ........


# [7] DIGIT SEVEN
0x37:
u+0037:
    ........
    ........
    ........
    .@@@@@@@
    .@.....@
    .@....@.
    .....@..
    .....@..
    ....@...
    ....@...
    ....@...
    ....@...
    ....@...
    ....@...
    ........
    ........


# [8] DIGIT EIGHT
0x38:
u+0038:
    ........
    ........
    ........
    ...@@@..
    ..@...@.
    .@.....@
    .@.....@
    ..@...@.
    ...@@@..
    ..@...@.
    .@.....@
    .@.....@
    ..@...@.
    ...@@@..
    ........
    ........


# [9] DIGIT NINE
0x39:
u+0039:
    ........
    ........
    ........
    ...@@@..
    ..@...@.
    .@.....@
    .@.....@
    .@.....@
    ..@...@@
    ...@@@.@
    .......@
    .@.....@
    ..@...@.
    ...@@@..
    ........
    ........


# [:] COLON
0x3a:
u+003a:
    ........
    ........
    ........
    ........
    ........
    ........
    ...@@...
    ...@@...
    ........
    ........
    ........
    ...@@...
    ...@@...
    ........
    ........
    ........


# [;] SEMICOLON
0x3b:
u+003b:
    ........
    ........
    ........
    ........
    ........
    ........
    ...@@...
    ...@@...
    ........
    ........
    ........
    ...@@...
    ...@@...
    ....@...
    ...@....
    ........


# [<] LESS-THAN SIGN
0x3c:
u+003c:
    ........
    ........
    ........
    ........
    ......@.
    .....@..
    ....@...
    ...@....
    ..@.....
    ...@....
    ....@...
    .....@..
    ......@.
    ........
    ........
    ........


# [=] EQUALS SIGN
0x3d:
u+003d:
    ........
    ........
    ........
    ........
    ........
    ........
    ........
    .@@@@@@@
    ........
    ........
    .@@@@@@@
    ........
    ........
    ........
    ........
    ........


# [>] GREATER-THAN SIGN
0x3e:
u+003e:
    ........
    ........
    ........
    ........
    ..@.....
    ...@....
    ....@...
    .....@..
    ......@.
    .....@..
    ....@...
    ...@....
    ..@.....
    ........
    ........
    ........


# [?] QUESTION MARK
0x3f:
u+003f:
    ........
    ........
    ........
    ...@@@..
    ..@...@.
    .@.....@
    .@.....@
    .......@
    .....@@.
    ....@...
    ....@...
    ........
    ....@...
    ....@...
    ........
    ........


# [@] COMMERCIAL AT
0x40:
u+0040:
    ........
    ........
    ........
    ...@@@..
    ..@...@.
    .@.....@
    .......@
    ..@@...@
    .@..@..@
    .@..@..@
    .@..@..@
    .@..@..@
    .@..@..@
    ..@@.@@.
    ........
    ........


# [A] LATIN CAPITAL LETTER A
0x41:
u+0041:
    ........
    ........
    ........
    ....@...
    ...@.@..
    ..@...@.
    .@.....@
    .@.....@
    .@.....@
    .@.....@
    .@@@@@@@
    .@.....@
    .@.....@
    .@.....@
    ........
    ........


# [B] LATIN CAPITAL LETTER B
0x42:
u+0042:
    ........
    ........
    ........
    .@@@@@..
    .@....@.
    .@.....@
    .@.....@
    .@....@.
    .@@@@@..
    .@....@.
    .@.....@
    .@.....@
    .@....@.
    .@@@@@..
    ........
    ........


# [C] LATIN CAPITAL LETTER C
0x43:
u+0043:
    ........
    ........
    ........
    ...@@@..
    ..@...@.
    .@.....@
    .@......
    .@......
    .@......
    .@......
    .@......
    .@.....@
    ..@...@.
    ...@@@..
    ........
    ........


# [D] LATIN CAPITAL LETTER D
0x44:
u+0044:
    ........
    ........
    ........
    .@@@@@..
    ..@...@.
    ..@....@
    ..@....@
    ..@....@
    ..@....@
    ..@....@
    ..@....@
    ..@....@
    ..@...@.
    .@@@@@..
    ........
    ........


# [E] LATIN CAPITAL LETTER E
0x45:
u+0045:
    ........
    ........
    ........
    .@@@@@@@
    .@......
    .@......
    .@......
    .@......
    .@@@@@@.
    .@......
    .@......
    .@......
    .@......
    .@@@@@@@
    ........
    ........


# [F] LATIN CAPITAL LETTER F
0x46:
u+0046:
    ........
    ........
    ........
    .@@@@@@@
    .@......
    .@......
    .@......
    .@......
    .@@@@@@.
    .@......
    .@......
    .@......
    .@......
    .@......
    ........
    ........


# [G] LATIN CAPITAL LETTER G
0x47:
u+0047:
    ........
    ........
    ........
    ...@@@..
    ..@...@.
    .@.....@
    .@......
    .@......
    .@...@@@
    .@.....@
    .@.....@
    .@.....@
    ..@...@@
    ...@@@.@
    ........
    ........


# [H] LATIN CAPITAL LETTER H
0x48:
u+0048:
    ........
    ........
    ........
    .@.....@
    .@.....@
    .@.....@
    .@.....@
    .@.....@
    .@@@@@@@
    .@.....@
    .@.....@
    .@.....@
    .@.....@
    .@.....@
    ........
    ........


# [I] LATIN CAPITAL LETTER I
0x49:
u+0049:
    ........
    ........
    ........
    ...@@@..
    ....@...
    ....@...
    ....@...
    ....@...
    ....@...
    ....@...
    ....@...
    ....@...
    ....@...
    ...@@@..
    ........
    ........


# [J] LATIN CAPITAL LETTER J
0x4a:
u+004a:
    ........
    ........
    ........
    .....@@@
    ......@.
    ......@.
    ......@.
    ......@.
    ......@.
    ......@.
    ......@.
    .@....@.
    .@...@..
    ..@@@...
    ........
    ........


# [K] LATIN CAPITAL LETTER K
0x4b:
u+004b:
    ........
    ........
    ........
    .@.....@
    .@....@.
    .@...@..
    .@..@...
    .@.@....
    .@@.....
    .@.@....
    .@..@...
    .@...@..
    .@....@.
    .@.....@
    ........
    ........


# [L] LATIN CAPITAL LETTER L
0x4c:
u+004c:
    ........
    ........
    ........
    ..@.....
    ..@.....
    ..@.....
    ..@.....
    ..@.....
    ..@.....
    ..@.....
    ..@.....
    ..@.....
    ..@.....
    ..@@@@@@
    ........
    ........


# [M] LATIN CAPITAL LETTER M
0x4d:
u+004d:
    ........
    ........
    ........
    .@.....@
    .@@...@@
    .@.@.@.@
    .@..@..@
    .@..@..@
    .@.....@
    .@.....@
    .@.....@
    .@.....@
    .@.....@
    .@.....@
    ........
    ........


# [N] LATIN CAPITAL LETTER N
0x4e:
u+004e:
    ........
    ........
    ........
    .@.....@
    .@@....@
    .@.@...@
    .@.@...@
    .@..@..@
    .@..@..@
    .@...@.@
    .@...@.@
    .@....@@
    .@.....@
    .@.....@
    ........
    ........


# [O] LATIN CAPITAL LETTER O
0x4f:
u+004f:
    ........
    ........
    ........
    ...@@@..
    ..@...@.
    .@.....@
    .@.....@
    .@.....@
    .@.....@
    .@.....@
    .@.....@
    .@.....@
    ..@...@.
    ...@@@..
    ........
    ........


# [P] LATIN CAPITAL LETTER P
0x50:
u+0050:
    ........
    ........
    ........
    .@@@@@..
    .@....@.
    .@.....@
    .@.....@
    .@.....@
    .@....@.
    .@@@@@..
    .@......
    .@......
    .@......
    .@......
    ........
    ........


# [Q] LATIN CAPITAL LETTER Q
0x51:
u+0051:
    ........
    ........
    ........
    ...@@@..
    ..@...@.
    .@.....@
    .@.....@
    .@.....@
    .@.....@
    .@.....@
    .@.@@@.@
    .@@...@@
    ..@...@.
    ...@@@.@
    ........
    ........


# [R] LATIN CAPITAL LETTER R
0x52:
u+0052:
    ........
    ........
    ........
    .@@@@@..
    .@....@.
    .@.....@
    .@.....@
    .@....@.
    .@@@@@..
    .@..@...
    .@...@..
    .@....@.
    .@....@.
    .@.....@
    ........
    ........


# [S] LATIN CAPITAL LETTER S
0x53:
u+0053:
    ........
    ........
    ........
    ...@@@..
    ..@...@.
    .@.....@
    .@......
    ..@.....
    ...@@@..
    ......@.
    .......@
    .@.....@
    ..@...@.
    ...@@@..
    ........
    ........


# [T] LATIN CAPITAL LETTER T
0x54:
u+0054:
    ........
    ........
    ........
    .@@@@@@@
    ....@...
    ....@...
    ....@...
    ....@...
    ....@...
    ....@...
    ....@...
    ....@...
    ....@...
    ....@...
    ........
    ........


# [U] LATIN CAPITAL LETTER U
0x55:
u+0055:
    ........
    ........
    ........
    .@.....@
    .@.....@
    .@.....@
    .@.....@
    .@.....@
    .@.....@
    .@.....@
    .@.....@
    .@.....@
    .@.....@
    ..@@@@@.
    ........
    ........


# [V] LATIN CAPITAL LETTER V
0x56:
u+0056:
    ........
    ........
    ........
    .@.....@
    .@.....@
    .@.....@
    .@.....@
    .@.....@
    .@.....@
    .@.....@
    .@.....@
    ..@...@.
    ...@.@..
    ....@...
    ........
    ........


# [W] LATIN CAPITAL LETTER W
0x57:
u+0057:
    ........
    ........
    ........
    .@.....@
    .@.....@
    .@.....@
    .@.....@
    .@.....@
    .@..@..@
    .@..@..@
    .@.@.@.@
    .@.@.@.@
    ..@...@.
    ..@...@.
    ........
    ........


# [X] LATIN CAPITAL LETTER X
0x58:
u+0058:
    ........
    ........
    ........
    .@.....@
    .@.....@
    .@.....@
    ..@...@.
    ...@.@..
    ....@...
    ...@.@..
    ..@...@.
    .@.....@
    .@.....@
    .@.....@
    ........
    ........


# [Y] LATIN CAPITAL LETTER Y
0x59:
u+0059:
    ........
    ........
    ........
    .@.....@
    .@.....@
    .@.....@
    ..@...@.
    ...@.@..
    ....@...
    ....@...
    ....@...
    ....@...
    ....@...
    ....@...
    ........
    ........


# [Z] LATIN CAPITAL LETTER Z
0x5a:
u+005a:
    ........
    ........
    ........
    .@@@@@@@
    .......@
    .......@
    ......@.
    .....@..
    ....@...
    ...@....
    ..@.....
    .@......
    .@......
    .@@@@@@@
    ........
    ........


# [[] LEFT SQUARE BRACKET
0x5b:
u+005b:
    ........
    ........
    ........
    ....@@@.
    ....@...
    ....@...
    ....@...
    ....@...
    ....@...
    ....@...
    ....@...
    ....@...
    ....@...
    ....@@@.
    ........
    ........


# [¥] YEN SIGN
0x5c:
u+00a5:
    ........
    ........
    ........
    .@.....@
    ..@...@.
    ...@.@..
    ....@...
    .@@@@@@@
    ....@...
    ....@...
    .@@@@@@@
    ....@...
    ....@...
    ....@...
    ........
    ........


# []] RIGHT SQUARE BRACKET
0x5d:
u+005d:
    ........
    ........
    ........
    ..@@@...
    ....@...
    ....@...
    ....@...
    ....@...
    ....@...
    ....@...
    ....@...
    ....@...
    ....@...
    ..@@@...
    ........
    ........


# [^] CIRCUMFLEX ACCENT
0x5e:
u+005e:
    ........
    ........
    ........
    ....@...
    ...@.@..
    ..@...@.
    .@.....@
    ........
    ........
    ........
    ........
    ........
    ........
    ........
    ........
    ........


# [_] LOW LINE
0x5f:
u+005f:
    ........
    ........
    ........
    ........
    ........
    ........
    ........
    ........
    ........
    ........
    ........
    ........
    ........
    .@@@@@@@
    ........
    ........


# [`] GRAVE ACCENT
0x60:
u+0060:
    ...@....
    ...@@...
    ....@@..
    .....@..
    ........
    ........
    ........
    ........
    ........
    ........
    ........
    ........
    ........
    ........
    ........
    ........


# [a] LATIN SMALL LETTER A
0x61:
u+0061:
    ........
    ........
    ........
    ........
    ........
    ........
    ..@@@@..
    .@....@.
    ......@.
    ..@@@@@.
    .@....@.
    .@....@.
    .@...@@.
    ..@@@.@.
    ........
    ........


# [b] LATIN SMALL LETTER B
0x62:
u+0062:
    ........
    ........
    ........
    ..@.....
    ..@.....
    ..@.....
    ..@.@@..
    ..@@..@.
    ..@....@
    ..@....@
    ..@....@
    ..@....@
    ..@@..@.
    ..@.@@..
    ........
    ........


# [c] LATIN SMALL LETTER C
0x63:
u+0063:
    ........
    ........
    ........
    ........
    ........
    ........
    ...@@@..
    ..@...@.
    .@.....@
    .@......
    .@......
    .@.....@
    ..@...@.
    ...@@@..
    ........
    ........


# [d] LATIN SMALL LETTER D
0x64:
u+0064:
    ........
    ........
    ........
    ......@.
    ......@.
    ......@.
    ...@@.@.
    ..@..@@.
    .@....@.
    .@....@.
    .@....@.
    .@....@.
    ..@..@@.
    ...@@.@.
    ........
    ........


# [e] LATIN SMALL LETTER E
0x65:
u+0065:
    ........
    ........
    ........
    ........
    ........
    ........
    ...@@@..
    ..@...@.
    .@.....@
    .@@@@@@@
    .@......
    .@.....@
    ..@...@.
    ...@@@..
    ........
    ........


# [f] LATIN SMALL LETTER F
0x66:
u+0066:
    ........
    ........
    ........
    ....@@..
    ...@..@.
    ...@....
    ..@@@@..
    ...@....
    ...@....
    ...@....
    ...@....
    ...@....
    ...@....
    ...@....
    ........
    ........


# [g] LATIN SMALL LETTER G
0x67:
u+0067:
    ........
    ........
    ........
    ........
    ........
    ........
    ...@@@.@
    ..@...@@
    .@.....@
    .@.....@
    .@.....@
    ..@...@@
    ...@@@.@
    .@.....@
    ..@...@.
    ...@@@..


# [h] LATIN SMALL LETTER H
0x68:
u+0068:
    ........
    ........
    ........
    ..@.....
    ..@.....
    ..@.....
    ..@.@@..
    ..@@..@.
    ..@....@
    ..@....@
    ..@....@
    ..@....@
    ..@....@
    ..@....@
    ........
    ........


# [i] LATIN SMALL LETTER I
0x69:
u+0069:
    ........
    ........
    ........
    ....@...
    ....@...
    ........
    ........
    ....@...
    ....@...
    ....@...
    ....@...
    ....@...
    ....@...
    ....@...
    ........
    ........


# [j] LATIN SMALL LETTER J
0x6a:
u+006a:
    ........
    ........
    ........
    .....@..
    .....@..
    ........
    ........
    .....@..
    .....@..
    .....@..
    .....@..
    .....@..
    .....@..
    .....@..
    ..@..@..
    ...@@...


# [k] LATIN SMALL LETTER K
0x6b:
u+006b:
    ........
    ........
    ........
    ..@.....
    ..@.....
    ..@.....
    ..@....@
    ..@...@.
    ..@..@..
    ..@.@...
    ..@@@...
    ..@..@..
    ..@...@.
    ..@....@
    ........
    ........


# [l] LATIN SMALL LETTER L
0x6c:
u+006c:
    ........
    ........
    ........
    ...@@...
    ....@...
    ....@...
    ....@...
    ....@...
    ....@...
    ....@...
    ....@...
    ....@...
    ....@...
    ....@...
    ........
    ........


# [m] LATIN SMALL LETTER M
0x6d:
u+006d:
    ........
    ........
    ........
    ........
    ........
    ........
    .@@@.@@.
    .@..@..@
    .@..@..@
    .@..@..@
    .@..@..@
    .@..@..@
    .@..@..@
    .@..@..@
    ........
    ........


# [n] LATIN SMALL LETTER N
0x6e:
u+006e:
    ........
    ........
    ........
    ........
    ........
    ........
    ..@.@@@.
    ..@@...@
    ..@....@
    ..@....@
    ..@....@
    ..@....@
    ..@....@
    ..@....@
    ........
    ........


# [o] LATIN SMALL LETTER O
0x6f:
u+006f:
    ........
    ........
    ........
    ........
    ........
    ........
    ...@@@..
    ..@...@.
    .@.....@
    .@.....@
    .@.....@
    .@.....@
    ..@...@.
    ...@@@..
    ........
    ........


# [p] LATIN SMALL LETTER P
0x70:
u+0070:
    ........
    ........
    ........
    ........
    ........
    ........
    ..@.@@..
    ..@@..@.
    ..@....@
    ..@....@
    ..@....@
    ..@....@
    ..@@..@.
    ..@.@@..
    ..@.....
    ..@.....


# [q] LATIN SMALL LETTER Q
0x71:
u+0071:
    ........
    ........
    ........
    ........
    ........
    ........
    ...@@.@.
    ..@..@@.
    .@....@.
    .@....@.
    .@....@.
    .@....@.
    ..@..@@.
    ...@@.@.
    ......@.
    ......@.


# [r] LATIN SMALL LETTER R
0x72:
u+0072:
    ........
    ........
    ........
    ........
    ........
    ........
    ..@.@@..
    ..@@..@.
    ..@.....
    ..@.....
    ..@.....
    ..@.....
    ..@.....
    ..@.....
    ........
    ........


# [s] LATIN SMALL LETTER S
0x73:
u+0073:
    ........
    ........
    ........
    ........
    ........
    ........
    ..@@@@@.
    .@.....@
    .@......
    ..@@@@@.
    .......@
    .......@
    .@.....@
    ..@@@@@.
    ........
    ........


# [t] LATIN SMALL LETTER T
0x74:
u+0074:
    ........
    ........
    ........
    ...@....
    ...@....
    ...@....
    .@@@@@..
    ...@....
    ...@....
    ...@....
    ...@....
    ...@....
    ...@..@.
    ....@@..
    ........
    ........


# [u] LATIN SMALL LETTER U
0x75:
u+0075:
    ........
    ........
    ........
    ........
    ........
    ........
    .@....@.
    .@....@.
    .@....@.
    .@....@.
    .@....@.
    .@....@.
    .@...@@.
    ..@@@.@.
    ........
    ........


# [v] LATIN SMALL LETTER V
0x76:
u+0076:
    ........
    ........
    ........
    ........
    ........
    ........
    .@.....@
    .@.....@
    ..@...@.
    ..@...@.
    ...@.@..
    ...@.@..
    ....@...
    ....@...
    ........
    ........


# [w] LATIN SMALL LETTER W
0x77:
u+0077:
    ........
    ........
    ........
    ........
    ........
    ........
    .@.....@
    .@.....@
    .@.....@
    .@..@..@
    .@..@..@
    .@.@.@.@
    ..@...@.
    ..@...@.
    ........
    ........


# [x] LATIN SMALL LETTER X
0x78:
u+0078:
    ........
    ........
    ........
    ........
    ........
    ........
    .@.....@
    ..@...@.
    ...@.@..
    ....@...
    ....@...
    ...@.@..
    ..@...@.
    .@.....@
    ........
    ........


# [y] LATIN SMALL LETTER Y
0x79:
u+0079:
    ........
    ........
    ........
    ........
    ........
    ........
    ..@....@
    ..@....@
    ..@....@
    ..@....@
    ..@....@
    ...@...@
    ....@.@.
    .....@..
    ....@...
    ..@@....


# [z] LATIN SMALL LETTER Z
0x7a:
u+007a:
    ........
    ........
    ........
    ........
    ........
    ........
    .@@@@@@@
    ......@.
    .....@..
    ....@...
    ...@....
    ..@.....
    .@......
    .@@@@@@@
    ........
    ........


# [{] LEFT CURLY BRACKET
0x7b:
u+007b:
    ........
    ........
    ........
    .....@@.
    ....@...
    ....@...
    ....@...
    ....@...
    ...@....
    ....@...
    ....@...
    ....@...
    ....@...
    .....@@.
    ........
    ........


# [|] VERTICAL LINE
0x7c:
u+007c:
    ........
    ........
    ....@...
    ....@...
    ....@...
    ....@...
    ........
    ........
    ........
    ........
    ....@...
    ....@...
    ....@...
    ....@...
    ........
    ........


# [}] RIGHT CURLY BRACKET
0x7d:
u+007d:
    ........
    ........
    ........
    ..@@....
    ....@...
    ....@...
    ....@...
    ....@...
    .....@..
    ....@...
    ....@...
    ....@...
    ....@...
    ..@@....
    ........
    ........


# [‾] OVERLINE
0x7e:
u+203e:
    ........
    ........
    ........
    ..@@....
    .@..@..@
    .....@@.
    ........
    ........
    ........
    ........
    ........
    ........
    ........
    ........
    ........
    ........

0x7f:
u+007f:
    ........
    ........
    ........
    ........
    ........
    ........
    ........
    ........
    ........
    ........
    ........
    ........
    ........
    ........
    ........
    ........

0x80:
    ........
    ........
    ........
    ........
    ........
    ........
    ........
    ........
    ........
    ........
    ........
    ........
    ........
    ........
    @@@@@@@@
    @@@@@@@@

0x81:
    ........
    ........
    ........
    ........
    ........
    ........
    ........
    ........
    ........
    ........
    ........
    ........
    @@@@@@@@
    @@@@@@@@
    @@@@@@@@
    @@@@@@@@

0x82:
    ........
    ........
    ........
    ........
    ........
    ........
    ........
    ........
    ........
    ........
    @@@@@@@@
    @@@@@@@@
    @@@@@@@@
    @@@@@@@@
    @@@@@@@@
    @@@@@@@@

0x83:
    ........
    ........
    ........
    ........
    ........
    ........
    ........
    ........
    @@@@@@@@
    @@@@@@@@
    @@@@@@@@
    @@@@@@@@
    @@@@@@@@
    @@@@@@@@
    @@@@@@@@
    @@@@@@@@

0x84:
    ........
    ........
    ........
    ........
    ........
    ........
    @@@@@@@@
    @@@@@@@@
    @@@@@@@@
    @@@@@@@@
    @@@@@@@@
    @@@@@@@@
    @@@@@@@@
    @@@@@@@@
    @@@@@@@@
    @@@@@@@@

0x85:
    ........
    ........
    ........
    ........
    @@@@@@@@
    @@@@@@@@
    @@@@@@@@
    @@@@@@@@
    @@@@@@@@
    @@@@@@@@
    @@@@@@@@
    @@@@@@@@
    @@@@@@@@
    @@@@@@@@
    @@@@@@@@
    @@@@@@@@

0x86:
    ........
    ........
    @@@@@@@@
    @@@@@@@@
    @@@@@@@@
    @@@@@@@@
    @@@@@@@@
    @@@@@@@@
    @@@@@@@@
    @@@@@@@@
    @@@@@@@@
    @@@@@@@@
    @@@@@@@@
    @@@@@@@@
    @@@@@@@@
    @@@@@@@@

0x87:
    @@@@@@@@
    @@@@@@@@
    @@@@@@@@
    @@@@@@@@
    @@@@@@@@
    @@@@@@@@
    @@@@@@@@
    @@@@@@@@
    @@@@@@@@
    @@@@@@@@
    @@@@@@@@
    @@@@@@@@
    @@@@@@@@
    @@@@@@@@
    @@@@@@@@
    @@@@@@@@

0x88:
    @.......
    @.......
    @.......
    @.......
    @.......
    @.......
    @.......
    @.......
    @.......
    @.......
    @.......
    @.......
    @.......
    @.......
    @.......
    @.......

0x89:
    @@......
    @@......
    @@......
    @@......
    @@......
    @@......
    @@......
    @@......
    @@......
    @@......
    @@......
    @@......
    @@......
    @@......
    @@......
    @@......

0x8a:
    @@@.....
    @@@.....
    @@@.....
    @@@.....
    @@@.....
    @@@.....
    @@@.....
    @@@.....
    @@@.....
    @@@.....
    @@@.....
    @@@.....
    @@@.....
    @@@.....
    @@@.....
    @@@.....

0x8b:
    @@@@....
    @@@@....
    @@@@....
    @@@@....
    @@@@....
    @@@@....
    @@@@....
    @@@@....
    @@@@....
    @@@@....
    @@@@....
    @@@@....
    @@@@....
    @@@@....
    @@@@....
    @@@@....

0x8c:
    @@@@@...
    @@@@@...
    @@@@@...
    @@@@@...
    @@@@@...
    @@@@@...
    @@@@@...
    @@@@@...
    @@@@@...
    @@@@@...
    @@@@@...
    @@@@@...
    @@@@@...
    @@@@@...
    @@@@@...
    @@@@@...

0x8d:
    @@@@@@..
    @@@@@@..
    @@@@@@..
    @@@@@@..
    @@@@@@..
    @@@@@@..
    @@@@@@..
    @@@@@@..
    @@@@@@..
    @@@@@@..
    @@@@@@..
    @@@@@@..
    @@@@@@..
    @@@@@@..
    @@@@@@..
    @@@@@@..

0x8e:
    @@@@@@@.
    @@@@@@@.
    @@@@@@@.
    @@@@@@@.
    @@@@@@@.
    @@@@@@@.
    @@@@@@@.
    @@@@@@@.
    @@@@@@@.
    @@@@@@@.
    @@@@@@@.
    @@@@@@@.
    @@@@@@@.
    @@@@@@@.
    @@@@@@@.
    @@@@@@@.

0x8f:
    ....@...
    ....@...
    ....@...
    ....@...
    ....@...
    ....@...
    ....@...
    ....@...
    @@@@@@@@
    ....@...
    ....@...
    ....@...
    ....@...
    ....@...
    ....@...
    ....@...

0x90:
    ....@...
    ....@...
    ....@...
    ....@...
    ....@...
    ....@...
    ....@...
    ....@...
    @@@@@@@@
    ........
    ........
    ........
    ........
    ........
    ........
    ........

0x91:
    ........
    ........
    ........
    ........
    ........
    ........
    ........
    ........
    @@@@@@@@
    ....@...
    ....@...
    ....@...
    ....@...
    ....@...
    ....@...
    ....@...

0x92:
    ....@...
    ....@...
    ....@...
    ....@...
    ....@...
    ....@...
    ....@...
    ....@...
    @@@@@...
    ....@...
    ....@...
    ....@...
    ....@...
    ....@...
    ....@...
    ....@...

0x93:
    ....@...
    ....@...
    ....@...
    ....@...
    ....@...
    ....@...
    ....@...
    ....@...
    ....@@@@
    ....@...
    ....@...
    ....@...
    ....@...
    ....@...
    ....@...
    ....@...

0x94:
    @@@@@@@@
    ........
    ........
    ........
    ........
    ........
    ........
    ........
    ........
    ........
    ........
    ........
    ........
    ........
    ........
    ........

0x95:
    ........
    ........
    ........
    ........
    ........
    ........
    ........
    ........
    @@@@@@@@
    ........
    ........
    ........
    ........
    ........
    ........
    ........

0x96:
    ....@...
    ....@...
    ....@...
    ....@...
    ....@...
    ....@...
    ....@...
    ....@...
    ....@...
    ....@...
    ....@...
    ....@...
    ....@...
    ....@...
    ....@...
    ....@...

0x97:
    .......@
    .......@
    .......@
    .......@
    .......@
    .......@
    .......@
    .......@
    .......@
    .......@
    .......@
    .......@
    .......@
    .......@
    .......@
    .......@

0x98:
    ........
    ........
    ........
    ........
    ........
    ........
    ........
    ........
    ....@@@@
    ....@...
    ....@...
    ....@...
    ....@...
    ....@...
    ....@...
    ....@...

0x99:
    ........
    ........
    ........
    ........
    ........
    ........
    ........
    ........
    @@@@@...
    ....@...
    ....@...
    ....@...
    ....@...
    ....@...
    ....@...
    ....@...

0x9a:
    ....@...
    ....@...
    ....@...
    ....@...
    ....@...
    ....@...
    ....@...
    ....@...
    ....@@@@
    ........
    ........
    ........
    ........
    ........
    ........
    ........

0x9b:
    ....@...
    ....@...
    ....@...
    ....@...
    ....@...
    ....@...
    ....@...
    ....@...
    @@@@@...
    ........
    ........
    ........
    ........
    ........
    ........
    ........

0x9c:
    ........
    ........
    ........
    ........
    ........
    ........
    ........
    ........
    .......@
    ......@.
    .....@..
    .....@..
    ....@...
    ....@...
    ....@...
    ....@...

0x9d:
    ........
    ........
    ........
    ........
    ........
    ........
    ........
    ........
    @@......
    ..@.....
    ...@....
    ...@....
    ....@...
    ....@...
    ....@...
    ....@...

0x9e:
    ....@...
    ....@...
    ....@...
    ....@...
    ....@...
    .....@..
    .....@..
    ......@.
    .......@
    ........
    ........
    ........
    ........
    ........
    ........
    ........

0x9f:
    ....@...
    ....@...
    ....@...
    ....@...
    ....@...
    ...@....
    ...@....
    ..@.....
    @@......
    ........
    ........
    ........
    ........
    ........
    ........
    ........

0xa0:
    ........
    ........
    ........
    ........
    ........
    ........
    ........
    ........
    ........
    ........
    ........
    ........
    ........
    ........
    ........
    ........


# [。] IDEOGRAPHIC FULL STOP
0xa1:
u+3002:
    ........
    ........
    ........
    ........
    ........
    ........
    ........
    ........
    ........
    ........
    ...@@...
    ..@..@..
    ..@..@..
    ...@@...
    ........
    ........


# [「] LEFT CORNER BRACKET
0xa2:
u+300c:
    ........
    ........
    ........
    ...@@@@.
    ...@....
    ...@....
    ...@....
    ...@....
    ...@....
    ...@....
    ...@....
    ...@....
    ........
    ........
    ........
    ........


# [」] RIGHT CORNER BRACKET
0xa3:
u+300d:
    ........
    ........
    ........
    ........
    ........
    .....@..
    .....@..
    .....@..
    .....@..
    .....@..
    .....@..
    .....@..
    .....@..
    ..@@@@..
    ........
    ........


# [、] IDEOGRAPHIC COMMA
0xa4:
u+3001:
    ........
    ........
    ........
    ........
    ........
    ........
    ........
    ........
    ........
    ........
    ........
    .@......
    ..@.....
    ...@....
    ........
    ........


# [・] KATAKANA MIDDLE DOT
0xa5:
u+30fb:
    ........
    ........
    ........
    ........
    ........
    ........
    ........
    ...@@...
    ...@@...
    ........
    ........
    ........
    ........
    ........
    ........
    ........


# [ヲ] KATAKANA LETTER WO
0xa6:
u+30f2:
    ........
    ........
    ........
    ........
    .@@@@@@@
    .......@
    .......@
    .@@@@@@@
    .......@
    .......@
    ......@.
    .....@..
    ....@...
    ..@@....
    ........
    ........


# [ァ] KATAKANA LETTER SMALL A
0xa7:
u+30a1:
    ........
    ........
    ........
    ........
    ........
    ........
    ........
    .@@@@@@@
    .......@
    ....@..@
    ....@@@.
    ....@...
    ...@....
    .@@.....
    ........
    ........


# [ィ] KATAKANA LETTER SMALL I
0xa8:
u+30a3:
    ........
    ........
    ........
    ........
    ........
    ........
    .......@
    ......@.
    .....@..
    ...@@@..
    .@@..@..
    .....@..
    .....@..
    .....@..
    ........
    ........


# [ゥ] KATAKANA LETTER SMALL U
0xa9:
u+30a5:
    ........
    ........
    ........
    ........
    ........
    ........
    ....@...
    .@@@@@@@
    .@.....@
    .@.....@
    .......@
    ......@.
    .....@..
    ...@@...
    ........
    ........


# [ェ] KATAKANA LETTER SMALL E
0xaa:
u+30a7:
    ........
    ........
    ........
    ........
    ........
    ........
    ........
    ..@@@@@.
    ....@...
    ....@...
    ....@...
    ....@...
    ....@...
    .@@@@@@@
    ........
    ........


# [ォ] KATAKANA LETTER SMALL O
0xab:
u+30a9:
    ........
    ........
    ........
    ........
    ........
    ........
    .....@..
    .....@..
    .@@@@@@@
    .....@..
    ....@@..
    ...@.@..
    ..@..@..
    .@...@..
    ........
    ........


# [ャ] KATAKANA LETTER SMALL YA
0xac:
u+30e3:
    ........
    ........
    ........
    ........
    ........
    ........
    ...@....
    ...@....
    .@@@@@@@
    ...@...@
    ...@..@.
    ...@....
    ...@....
    ...@....
    ........
    ........


# [ュ] KATAKANA LETTER SMALL YU
0xad:
u+30e5:
    ........
    ........
    ........
    ........
    ........
    ........
    ........
    ..@@@@..
    .....@..
    .....@..
    .....@..
    .....@..
    .....@..
    .@@@@@@@
    ........
    ........


# [ョ] KATAKANA LETTER SMALL YO
0xae:
u+30e7:
    ........
    ........
    ........
    ........
    ........
    ........
    ........
    .@@@@@@.
    ......@.
    ......@.
    ..@@@@@.
    ......@.
    ......@.
    .@@@@@@.
    ........
    ........


# [ッ] KATAKANA LETTER SMALL TU
0xaf:
u+30c3:
    ........
    ........
    ........
    ........
    ........
    ........
    ........
    .@..@..@
    .@..@..@
    .@..@..@
    .......@
    ......@.
    .....@..
    ...@@...
    ........
    ........


# [ー] KATAKANA-HIRAGANA PROLONGED SOUND MARK
0xb0:
u+30fc:
    ........
    ........
    ........
    ........
    ........
    ........
    ........
    ........
    ........
    .@@@@@@@
    ........
    ........
    ........
    ........
    ........
    ........


# [ア] KATAKANA LETTER A
0xb1:
u+30a2:
    ........
    ........
    ........
    ........
    .@@@@@@@
    .......@
    .......@
    ....@..@
    ....@@@.
    ....@...
    ...@....
    ...@....
    ..@.....
    .@......
    ........
    ........


# [イ] KATAKANA LETTER I
0xb2:
u+30a4:
    ........
    ........
    ........
    .......@
    .......@
    ......@.
    ......@.
    .....@..
    ...@@@..
    .@@..@..
    .....@..
    .....@..
    .....@..
    .....@..
    ........
    ........


# [ウ] KATAKANA LETTER U
0xb3:
u+30a6:
    ........
    ........
    ........
    ....@...
    ....@...
    .@@@@@@@
    .@.....@
    .@.....@
    .@.....@
    .......@
    .......@
    ......@.
    .....@..
    ...@@...
    ........
    ........


# [エ] KATAKANA LETTER E
0xb4:
u+30a8:
    ........
    ........
    ........
    ........
    ..@@@@@.
    ....@...
    ....@...
    ....@...
    ....@...
    ....@...
    ....@...
    ....@...
    ....@...
    .@@@@@@@
    ........
    ........


# [オ] KATAKANA LETTER O
0xb5:
u+30aa:
    ........
    ........
    ........
    .....@..
    .....@..
    .@@@@@@@
    .....@..
    ....@@..
    ....@@..
    ...@.@..
    ...@.@..
    ..@..@..
    .@...@..
    .....@..
    ........
    ........


# [カ] KATAKANA LETTER KA
0xb6:
u+30ab:
    ........
    ........
    ........
    ....@...
    ....@...
    .@@@@@@@
    ....@..@
    ....@..@
    ....@..@
    ...@...@
    ...@...@
    ..@....@
    ..@....@
    .@...@@.
    ........
    ........


# [キ] KATAKANA LETTER KI
0xb7:
u+30ad:
    ........
    ........
    ........
    ....@...
    ....@...
    .@@@@@@@
    ....@...
    ....@...
    ....@...
    ....@...
    .@@@@@@@
    ....@...
    ....@...
    ....@...
    ........
    ........


# [ク] KATAKANA LETTER KU
0xb8:
u+30af:
    ........
    ........
    ........
    ...@....
    ...@@@@@
    ...@...@
    ..@....@
    ..@....@
    .@.....@
    .......@
    ......@.
    .....@..
    ....@...
    ..@@....
    ........
    ........


# [ケ] KATAKANA LETTER KE
0xb9:
u+30b1:
    ........
    ........
    ........
    ..@.....
    ..@.....
    ..@@@@@@
    ..@..@..
    .@...@..
    .....@..
    .....@..
    .....@..
    ....@...
    ...@....
    ..@.....
    ........
    ........


# [コ] KATAKANA LETTER KO
0xba:
u+30b3:
    ........
    ........
    ........
    ........
    .@@@@@@@
    .......@
    .......@
    .......@
    .......@
    .......@
    .......@
    .......@
    .......@
    .@@@@@@@
    ........
    ........


# [サ] KATAKANA LETTER SA
0xbb:
u+30b5:
    ........
    ........
    ........
    ..@...@.
    ..@...@.
    ..@...@.
    .@@@@@@@
    ..@...@.
    ..@...@.
    ..@...@.
    ......@.
    .....@..
    ....@...
    ...@....
    ........
    ........


# [シ] KATAKANA LETTER SI
0xbc:
u+30b7:
    ........
    ........
    ........
    ........
    .@@.....
    ...@...@
    .......@
    .@@....@
    ...@...@
    .......@
    ......@.
    .....@..
    ....@...
    .@@@....
    ........
    ........


# [ス] KATAKANA LETTER SU
0xbd:
u+30b9:
    ........
    ........
    ........
    ........
    .@@@@@@.
    ......@.
    ......@.
    .....@..
    .....@..
    ....@...
    ....@...
    ...@.@..
    ..@...@.
    .@.....@
    ........
    ........


# [セ] KATAKANA LETTER SE
0xbe:
u+30bb:
    ........
    ........
    ........
    ...@....
    ...@....
    .@@@@@@@
    ...@...@
    ...@...@
    ...@..@.
    ...@....
    ...@....
    ...@....
    ...@....
    ....@@@@
    ........
    ........


# [ソ] KATAKANA LETTER SO
0xbf:
u+30bd:
    ........
    ........
    ........
    ........
    .@.....@
    ..@....@
    ..@....@
    ...@...@
    ...@...@
    .......@
    ......@.
    .....@..
    ....@...
    ..@@....
    ........
    ........


# [タ] KATAKANA LETTER TA
0xc0:
u+30bf:
    ........
    ........
    ........
    ...@....
    ...@@@@@
    ...@...@
    ..@....@
    ..@....@
    .@.@...@
    ....@..@
    .....@@.
    .....@..
    ....@...
    ..@@....
    ........
    ........


# [チ] KATAKANA LETTER TI
0xc1:
u+30c1:
    ........
    ........
    ........
    ......@@
    ..@@@@..
    .....@..
    .....@..
    .@@@@@@@
    .....@..
    .....@..
    .....@..
    ....@...
    ...@....
    .@@.....
    ........
    ........


# [ツ] KATAKANA LETTER TU
0xc2:
u+30c4:
    ........
    ........
    ........
    ........
    .@..@..@
    .@..@..@
    .@..@..@
    .@..@..@
    .......@
    .......@
    ......@.
    .....@..
    ....@...
    ..@@....
    ........
    ........


# [テ] KATAKANA LETTER TE
0xc3:
u+30c6:
    ........
    ........
    ........
    ........
    ..@@@@@.
    ........
    ........
    .@@@@@@@
    ....@...
    ....@...
    ....@...
    ....@...
    ...@....
    .@@.....
    ........
    ........


# [ト] KATAKANA LETTER TO
0xc4:
u+30c8:
    ........
    ........
    ........
    ..@.....
    ..@.....
    ..@.....
    ..@.....
    ..@@....
    ..@.@...
    ..@..@..
    ..@...@.
    ..@.....
    ..@.....
    ..@.....
    ........
    ........


# [ナ] KATAKANA LETTER NA
0xc5:
u+30ca:
    ........
    ........
    ........
    ....@...
    ....@...
    ....@...
    .@@@@@@@
    ....@...
    ....@...
    ....@...
    ....@...
    ....@...
    ...@....
    .@@.....
    ........
    ........


# [ニ] KATAKANA LETTER NI
0xc6:
u+30cb:
    ........
    ........
    ........
    ........
    ..@@@@@.
    ........
    ........
    ........
    ........
    ........
    ........
    ........
    ........
    .@@@@@@@
    ........
    ........


# [ヌ] KATAKANA LETTER NU
0xc7:
u+30cc:
    ........
    ........
    ........
    ........
    .@@@@@@.
    ......@.
    ......@.
    ..@...@.
    ...@..@.
    ....@@..
    ....@...
    ...@.@..
    ..@...@.
    .@......
    ........
    ........


# [ネ] KATAKANA LETTER NE
0xc8:
u+30cd:
    ........
    ........
    ........
    ....@...
    ....@...
    .@@@@@@@
    .......@
    ......@.
    .....@..
    ....@@..
    ...@@.@.
    .@@.@..@
    ....@...
    ....@...
    ........
    ........


# [ノ] KATAKANA LETTER NO
0xc9:
u+30ce:
    ........
    ........
    ........
    ........
    .......@
    .......@
    .......@
    ......@.
    ......@.
    .....@..
    .....@..
    ....@...
    ...@....
    .@@.....
    ........
    ........


# [ハ] KATAKANA LETTER HA
0xca:
u+30cf:
    ........
    ........
    ........
    ....@...
    .....@..
    ..@...@.
    ..@....@
    ..@....@
    ..@....@
    ..@....@
    ..@....@
    ..@....@
    .@.....@
    ........
    ........
    ........


# [ヒ] KATAKANA LETTER HI
0xcb:
u+30d2:
    ........
    ........
    ........
    .@......
    .@......
    .@......
    .@@@@@@@
    .@......
    .@......
    .@......
    .@......
    .@......
    ..@@@@@@
    ........
    ........
    ........


# [フ] KATAKANA LETTER HU
0xcc:
u+30d5:
    ........
    ........
    ........
    ........
    .@@@@@@@
    .......@
    .......@
    ......@.
    ......@.
    .....@..
    .....@..
    ....@...
    ...@....
    ..@.....
    ........
    ........


# [ヘ] KATAKANA LETTER HE
0xcd:
u+30d8:
    ........
    ........
    ........
    ........
    ...@....
    ...@@...
    ..@.@...
    ..@..@..
    .@...@..
    ......@.
    ......@.
    .......@
    .......@
    ........
    ........
    ........


# [ホ] KATAKANA LETTER HO
0xce:
u+30db:
    ........
    ........
    ........
    ....@...
    ....@...
    ....@...
    .@@@@@@@
    ....@...
    ....@...
    ..@.@.@.
    ..@.@.@.
    .@..@..@
    .@..@..@
    ....@...
    ........
    ........


# [マ] KATAKANA LETTER MA
0xcf:
u+30de:
    ........
    ........
    ........
    ........
    .@@@@@@@
    .......@
    .......@
    ......@.
    ......@.
    ..@..@..
    ...@@...
    ....@...
    .....@..
    ......@.
    ........
    ........


# [ミ] KATAKANA LETTER MI
0xd0:
u+30df:
    ........
    ........
    ........
    ........
    ..@@@@..
    ......@.
    ........
    ........
    ..@@@@..
    ......@.
    ........
    ........
    .@@@@@@.
    .......@
    ........
    ........


# [ム] KATAKANA LETTER MU
0xd1:
u+30e0:
    ........
    ........
    ........
    ....@...
    ....@...
    ....@...
    ...@....
    ...@....
    ..@...@.
    ..@...@.
    .@....@.
    .@....@.
    .@@@@@.@
    .......@
    ........
    ........


# [メ] KATAKANA LETTER ME
0xd2:
u+30e1:
    ........
    ........
    ........
    ......@.
    ......@.
    ......@.
    ..@...@.
    ...@..@.
    ....@.@.
    .....@..
    ....@.@.
    ...@...@
    ..@.....
    .@......
    ........
    ........


# [モ] KATAKANA LETTER MO
0xd3:
u+30e2:
    ........
    ........
    ........
    ........
    .@@@@@@@
    ...@....
    ...@....
    ...@....
    .@@@@@@@
    ...@....
    ...@....
    ...@....
    ...@....
    ....@@@@
    ........
    ........


# [ヤ] KATAKANA LETTER YA
0xd4:
u+30e4:
    ........
    ........
    ........
    ...@....
    ...@....
    .@@@@@@@
    ...@...@
    ...@...@
    ...@..@.
    ...@....
    ...@....
    ...@....
    ...@....
    ...@....
    ........
    ........


# [ユ] KATAKANA LETTER YU
0xd5:
u+30e6:
    ........
    ........
    ........
    ........
    ..@@@@..
    .....@..
    .....@..
    .....@..
    .....@..
    .....@..
    .....@..
    .....@..
    .....@..
    .@@@@@@@
    ........
    ........


# [ヨ] KATAKANA LETTER YO
0xd6:
u+30e8:
    ........
    ........
    ........
    ........
    .@@@@@@@
    .......@
    .......@
    .......@
    ..@@@@@@
    .......@
    .......@
    .......@
    .......@
    .@@@@@@@
    ........
    ........


# [ラ] KATAKANA LETTER RA
0xd7:
u+30e9:
    ........
    ........
    ........
    ..@@@@@.
    ........
    ........
    .@@@@@@@
    .......@
    .......@
    .......@
    ......@.
    .....@..
    ....@...
    ..@@....
    ........
    ........


# [リ] KATAKANA LETTER RI
0xd8:
u+30ea:
    ........
    ........
    ........
    ..@...@.
    ..@...@.
    ..@...@.
    ..@...@.
    ..@...@.
    ..@...@.
    ......@.
    ......@.
    .....@..
    .....@..
    ...@@...
    ........
    ........


# [ル] KATAKANA LETTER RU
0xd9:
u+30eb:
    ........
    ........
    ........
    ....@...
    ....@...
    ..@.@...
    ..@.@...
    ..@.@...
    ..@.@...
    ..@.@..@
    ..@.@..@
    ..@.@.@.
    ..@.@@..
    .@..@...
    ........
    ........


# [レ] KATAKANA LETTER RE
0xda:
u+30ec:
    ........
    ........
    ........
    ..@.....
    ..@.....
    ..@.....
    ..@.....
    ..@.....
    ..@.....
    ..@....@
    ..@...@.
    ..@..@..
    ..@.@...
    ..@@....
    ........
    ........


# [ロ] KATAKANA LETTER RO
0xdb:
u+30ed:
    ........
    ........
    ........
    ........
    .@@@@@@@
    .@.....@
    .@.....@
    .@.....@
    .@.....@
    .@.....@
    .@.....@
    .@.....@
    .@.....@
    .@@@@@@@
    ........
    ........


# [ワ] KATAKANA LETTER WA
0xdc:
u+30ef:
    ........
    ........
    ........
    ........
    .@@@@@@@
    .@.....@
    .@.....@
    .@.....@
    .......@
    .......@
    ......@.
    .....@..
    ....@...
    ..@@....
    ........
    ........


# [ン] KATAKANA LETTER N
0xdd:
u+30f3:
    ........
    ........
    ........
    ........
    .@@.....
    ...@@...
    .......@
    .......@
    .......@
    .......@
    ......@.
    .....@..
    ....@...
    .@@@....
    ........
    ........


# [゛] KATAKANA-HIRAGANA VOICED SOUND MARK
0xde:
u+309b:
    ........
    ........
    .@..@...
    ..@..@..
    ...@..@.
    ........
    ........
    ........
    ........
    ........
    ........
    ........
    ........
    ........
    ........
    ........


# [゜] KATAKANA-HIRAGANA SEMI-VOICED SOUND MARK
0xdf:
u+309c:
    ........
    ........
    ..@@....
    .@..@...
    .@..@...
    ..@@....
    ........
    ........
    ........
    ........
    ........
    ........
    ........
    ........
    ........
    ........

0xe0:
    ........
    ........
    ........
    ........
    @@@@@@@@
    ........
    ........
    ........
    ........
    ........
    @@@@@@@@
    ........
    ........
    ........
    ........
    ........

0xe1:
    ....@...
    ....@...
    ....@...
    ....@...
    ....@@@@
    ....@...
    ....@...
    ....@...
    ....@...
    ....@...
    ....@@@@
    ....@...
    ....@...
    ....@...
    ....@...
    ....@...

0xe2:
    ....@...
    ....@...
    ....@...
    ....@...
    @@@@@@@@
    ....@...
    ....@...
    ....@...
    ....@...
    ....@...
    @@@@@@@@
    ....@...
    ....@...
    ....@...
    ....@...
    ....@...

0xe3:
    ....@...
    ....@...
    ....@...
    ....@...
    @@@@@...
    ....@...
    ....@...
    ....@...
    ....@...
    ....@...
    @@@@@...
    ....@...
    ....@...
    ....@...
    ....@...
    ....@...

0xe4:
    .......@
    .......@
    ......@@
    ......@@
    .....@@@
    .....@@@
    ....@@@@
    ....@@@@
    ...@@@@@
    ...@@@@@
    ..@@@@@@
    ..@@@@@@
    .@@@@@@@
    .@@@@@@@
    @@@@@@@@
    @@@@@@@@

0xe5:
    @.......
    @.......
    @@......
    @@......
    @@@.....
    @@@.....
    @@@@....
    @@@@....
    @@@@@...
    @@@@@...
    @@@@@@..
    @@@@@@..
    @@@@@@@.
    @@@@@@@.
    @@@@@@@@
    @@@@@@@@

0xe6:
    @@@@@@@@
    @@@@@@@@
    .@@@@@@@
    .@@@@@@@
    ..@@@@@@
    ..@@@@@@
    ...@@@@@
    ...@@@@@
    ....@@@@
    ....@@@@
    .....@@@
    .....@@@
    ......@@
    ......@@
    .......@
    .......@

0xe7:
    @@@@@@@@
    @@@@@@@@
    @@@@@@@.
    @@@@@@@.
    @@@@@@..
    @@@@@@..
    @@@@@...
    @@@@@...
    @@@@....
    @@@@....
    @@@.....
    @@@.....
    @@......
    @@......
    @.......
    @.......

0xe8:
    ....@...
    ....@...
    ...@@@..
    ...@@@..
    ..@@@@@.
    ..@@@@@.
    .@@@@@@@
    .@@@@@@@
    .@@@@@@@
    .@@@@@@@
    ..@.@.@.
    ....@...
    ...@@@..
    ..@@@@@.
    ........
    ........

0xe9:
    ..@@.@@.
    ..@@.@@.
    .@@@@@@@
    .@@@@@@@
    .@@@@@@@
    .@@@@@@@
    .@@@@@@@
    .@@@@@@@
    ..@@@@@.
    ..@@@@@.
    ...@@@..
    ...@@@..
    ....@...
    ....@...
    ........
    ........

0xea:
    ....@...
    ....@...
    ...@@@..
    ...@@@..
    ..@@@@@.
    ..@@@@@.
    .@@@@@@@
    .@@@@@@@
    ..@@@@@.
    ..@@@@@.
    ...@@@..
    ...@@@..
    ....@...
    ....@...
    ........
    ........

0xeb:
    ....@...
    ...@@@..
    ...@@@..
    ...@@@..
    ..@.@.@.
    .@@@@@@@
    .@@@@@@@
    .@@@@@@@
    .@@@@@@@
    ..@.@.@.
    ....@...
    ....@...
    ...@@@..
    ..@@@@@.
    ........
    ........

0xec:
    ........
    ........
    ...@@@..
    ..@@@@@.
    .@@@@@@@
    .@@@@@@@
    .@@@@@@@
    .@@@@@@@
    .@@@@@@@
    .@@@@@@@
    .@@@@@@@
    .@@@@@@@
    ..@@@@@.
    ...@@@..
    ........
    ........

0xed:
    ........
    ........
    ...@@@..
    ..@...@.
    .@.....@
    .@.....@
    .@.....@
    .@.....@
    .@.....@
    .@.....@
    .@.....@
    .@.....@
    ..@...@.
    ...@@@..
    ........
    ........

0xee:
    .......@
    .......@
    ......@.
    ......@.
    .....@..
    .....@..
    ....@...
    ....@...
    ...@....
    ...@....
    ..@.....
    ..@.....
    .@......
    .@......
    @.......
    @.......

0xef:
    @.......
    @.......
    .@......
    .@......
    ..@.....
    ..@.....
    ...@....
    ...@....
    ....@...
    ....@...
    .....@..
    .....@..
    ......@.
    ......@.
    .......@
    .......@

0xf0:
    @......@
    @......@
    .@....@.
    .@....@.
    ..@..@..
    ..@..@..
    ...@@...
    ...@@...
    ...@@...
    ...@@...
    ..@..@..
    ..@..@..
    .@....@.
    .@....@.
    @......@
    @......@

0xf1:
    ........
    .@@@@@@@
    .@..@..@
    .@..@..@
    .@..@..@
    .@..@..@
    .@..@..@
    .@@@@@@@
    .@.....@
    .@.....@
    .@.....@
    .@.....@
    .@.....@
    .@....@@
    ........
    ........

0xf2:
    ........
    ..@.....
    ..@.....
    ..@@@@@@
    .@...@..
    .....@..
    ..@@@@@@
    ..@..@..
    ..@..@..
    ..@..@..
    .@@@@@@@
    .....@..
    .....@..
    .....@..
    ........
    ........

0xf3:
    ........
    ..@@@@@@
    ..@....@
    ..@....@
    ..@....@
    ..@@@@@@
    ..@....@
    ..@....@
    ..@....@
    ..@@@@@@
    ..@....@
    ..@....@
    .@.....@
    .@....@@
    ........
    ........

0xf4:
    ........
    .@@@@@@.
    .@....@.
    .@....@.
    .@....@.
    .@....@.
    .@....@.
    .@@@@@@.
    .@....@.
    .@....@.
    .@....@.
    .@....@.
    .@....@.
    .@@@@@@.
    ........
    ........

0xf5:
    ........
    .....@..
    .....@..
    .@@@@@@.
    .@.@.@..
    .@.@.@..
    .@.@@@@@
    .@@@..@.
    .@.@@@@@
    .@.@..@.
    .@.@@.@.
    .@@@.@@.
    ......@.
    .....@@.
    ........
    ........

0xf6:
    ........
    .....@..
    ...@..@.
    ..@....@
    ..@....@
    .@.....@
    ........
    .@@@@@@@
    ...@...@
    ...@...@
    ...@...@
    ...@...@
    ..@....@
    .@....@@
    ........
    ........

0xf7:
    ........
    ...@.@..
    ..@..@..
    .@@..@..
    ..@.@@..
    ..@.@@@.
    .@@@.@.@
    ..@..@..
    .@@@.@.@
    .@@..@.@
    .@@..@.@
    ..@...@.
    ..@..@..
    ..@.@...
    ........
    ........

0xf8:
    ........
    ........
    ........
    ........
    ........
    ........
    ........
    ........
    ........
    ........
    ........
    ........
    ........
    ........
    ........
    ........

0xf9:
    ........
    ........
    ........
    ........
    ........
    ........
    ........
    ........
    ........
    ........
    ........
    ........
    ........
    ........
    ........
    ........

0xfa:
    ........
    ........
    ........
    ........
    ........
    ........
    ........
    ........
    ........
    ........
    ........
    ........
    ........
    ........
    ........
    ........

0xfb:
    ........
    ........
    ........
    ........
    ........
    ........
    ........
    ........
    ........
    ........
    ........
    ........
    ........
    ........
    ........
    ........

0xfc:
    ........
    ........
    ........
    ........
    ........
    .@......
    ..@.....
    ...@....
    ....@...
    .....@..
    ......@.
    .......@
    ........
    ........
    ........
    ........

0xfd:
    ........
    ........
    ........
    ........
    ........
    ........
    ........
    ........
    ........
    ........
    ........
    ........
    ........
    ........
    ........
    ........

0xfe:
    ........
    ........
    ........
    ........
    ........
    ........
    ........
    ........
    ........
    ........
    ........
    ........
    ........
    ........
    ........
    ........

0xff:
    ........
    ........
    ........
    ........
    ........
    ........
    ........
    ........
    ........
    ........
    ........
    ........
    ........
    ........
    ........
    ........

